<?xml version="1.0" encoding="utf-8" standalone="no"?>
<!DOCTYPE svg PUBLIC "-//W3C//DTD SVG 1.1//EN"
  "http://www.w3.org/Graphics/SVG/1.1/DTD/svg11.dtd">
<svg xmlns:xlink="http://www.w3.org/1999/xlink" width="162.93pt" height="142.561875pt" viewBox="0 0 162.93 142.561875" xmlns="http://www.w3.org/2000/svg" version="1.1">
 <metadata>
  <rdf:RDF xmlns:dc="http://purl.org/dc/elements/1.1/" xmlns:cc="http://creativecommons.org/ns#" xmlns:rdf="http://www.w3.org/1999/02/22-rdf-syntax-ns#">
   <cc:Work>
    <dc:type rdf:resource="http://purl.org/dc/dcmitype/StillImage"/>
    <dc:date>2026-05-22T14:27:29.397968</dc:date>
    <dc:format>image/svg+xml</dc:format>
    <dc:creator>
     <cc:Agent>
      <dc:title>Matplotlib v3.10.9, https://matplotlib.org/</dc:title>
     </cc:Agent>
    </dc:creator>
   </cc:Work>
  </rdf:RDF>
 </metadata>
 <defs>
  <style type="text/css">*{stroke-linejoin: round; stroke-linecap: butt}</style>
 </defs>
 <g id="figure_1">
  <g id="patch_1">
   <path d="M 0 142.561875 
L 162.93 142.561875 
L 162.93 0 
L 0 0 
L 0 142.561875 
z
" style="fill: none"/>
  </g>
  <g id="axes_1">
   <g id="patch_2">
    <path d="M 44.13 121.119375 
L 155.73 121.119375 
L 155.73 10.239375 
L 44.13 10.239375 
L 44.13 121.119375 
z
" style="fill: none"/>
   </g>
   <g id="FillBetweenPolyCollection_1">
    <defs>
     <path id="m56203d6e71" d="M 72.047007 -26.337442 
L 72.012993 -26.337442 
L 71.984816 -27.201081 
L 71.920734 -28.064719 
L 71.789033 -28.928357 
L 71.544824 -29.791996 
L 71.136953 -30.655634 
L 70.523323 -31.519272 
L 69.688338 -32.382911 
L 68.64935 -33.246549 
L 67.442141 -34.110188 
L 66.091429 -34.973826 
L 64.588873 -35.837464 
L 62.899894 -36.701103 
L 60.999121 -37.564741 
L 58.911942 -38.428379 
L 56.736036 -39.292018 
L 54.63054 -40.155656 
L 52.776789 -41.019295 
L 51.325754 -41.882933 
L 50.353339 -42.746571 
L 49.843762 -43.61021 
L 49.71 -44.473848 
L 49.8417 -45.337486 
L 50.153696 -46.201125 
L 50.606039 -47.064763 
L 51.188316 -47.928401 
L 51.892254 -48.79204 
L 52.703312 -49.655678 
L 53.613372 -50.519317 
L 54.628047 -51.382955 
L 55.75013 -52.246593 
L 56.952688 -53.110232 
L 58.169277 -53.97387 
L 59.311606 -54.837508 
L 60.30186 -55.701147 
L 61.100653 -56.564785 
L 61.719581 -57.428423 
L 62.21657 -58.292062 
L 62.676883 -59.1557 
L 63.184786 -60.019339 
L 63.793479 -60.882977 
L 64.503794 -61.746615 
L 65.261743 -62.610254 
L 65.978824 -63.473892 
L 66.568497 -64.33753 
L 66.983346 -65.201169 
L 67.235637 -66.064807 
L 67.391169 -66.928445 
L 67.539208 -67.792084 
L 67.753528 -68.655722 
L 68.064212 -69.519361 
L 68.452769 -70.382999 
L 68.868496 -71.246637 
L 69.253395 -72.110276 
L 69.56351 -72.973914 
L 69.780989 -73.837552 
L 69.915376 -74.701191 
L 69.994565 -75.564829 
L 70.049672 -76.428467 
L 70.102198 -77.292106 
L 70.160504 -78.155744 
L 70.225486 -79.019383 
L 70.298695 -79.883021 
L 70.38577 -80.746659 
L 70.493306 -81.610298 
L 70.623072 -82.473936 
L 70.769235 -83.337574 
L 70.920831 -84.201213 
L 71.066828 -85.064851 
L 71.199402 -85.92849 
L 71.313868 -86.792128 
L 71.407458 -87.655766 
L 71.479794 -88.519405 
L 71.534925 -89.383043 
L 71.58182 -90.246681 
L 71.630789 -91.11032 
L 71.687387 -91.973958 
L 71.748506 -92.837596 
L 71.803859 -93.701235 
L 71.841564 -94.564873 
L 71.853871 -95.428512 
L 71.840345 -96.29215 
L 71.808322 -97.155788 
L 71.771175 -98.019427 
L 71.74443 -98.883065 
L 71.740202 -99.746703 
L 71.762167 -100.610342 
L 71.804116 -101.47398 
L 71.853401 -102.337618 
L 71.897259 -103.201257 
L 71.92815 -104.064895 
L 71.945463 -104.928534 
L 71.953741 -105.792172 
L 71.959291 -106.65581 
L 71.967003 -107.519449 
L 71.978546 -108.383087 
L 71.992475 -109.246725 
L 72.005904 -110.110364 
L 72.01648 -110.974002 
L 72.023398 -111.83764 
L 72.036602 -111.83764 
L 72.036602 -111.83764 
L 72.04352 -110.974002 
L 72.054096 -110.110364 
L 72.067525 -109.246725 
L 72.081454 -108.383087 
L 72.092997 -107.519449 
L 72.100709 -106.65581 
L 72.106259 -105.792172 
L 72.114537 -104.928534 
L 72.13185 -104.064895 
L 72.162741 -103.201257 
L 72.206599 -102.337618 
L 72.255884 -101.47398 
L 72.297833 -100.610342 
L 72.319798 -99.746703 
L 72.31557 -98.883065 
L 72.288825 -98.019427 
L 72.251678 -97.155788 
L 72.219655 -96.29215 
L 72.206129 -95.428512 
L 72.218436 -94.564873 
L 72.256141 -93.701235 
L 72.311494 -92.837596 
L 72.372613 -91.973958 
L 72.429211 -91.11032 
L 72.47818 -90.246681 
L 72.525075 -89.383043 
L 72.580206 -88.519405 
L 72.652542 -87.655766 
L 72.746132 -86.792128 
L 72.860598 -85.92849 
L 72.993172 -85.064851 
L 73.139169 -84.201213 
L 73.290765 -83.337574 
L 73.436928 -82.473936 
L 73.566694 -81.610298 
L 73.67423 -80.746659 
L 73.761305 -79.883021 
L 73.834514 -79.019383 
L 73.899496 -78.155744 
L 73.957802 -77.292106 
L 74.010328 -76.428467 
L 74.065435 -75.564829 
L 74.144624 -74.701191 
L 74.279011 -73.837552 
L 74.49649 -72.973914 
L 74.806605 -72.110276 
L 75.191504 -71.246637 
L 75.607231 -70.382999 
L 75.995788 -69.519361 
L 76.306472 -68.655722 
L 76.520792 -67.792084 
L 76.668831 -66.928445 
L 76.824363 -66.064807 
L 77.076654 -65.201169 
L 77.491503 -64.33753 
L 78.081176 -63.473892 
L 78.798257 -62.610254 
L 79.556206 -61.746615 
L 80.266521 -60.882977 
L 80.875214 -60.019339 
L 81.383117 -59.1557 
L 81.84343 -58.292062 
L 82.340419 -57.428423 
L 82.959347 -56.564785 
L 83.75814 -55.701147 
L 84.748394 -54.837508 
L 85.890723 -53.97387 
L 87.107312 -53.110232 
L 88.30987 -52.246593 
L 89.431953 -51.382955 
L 90.446628 -50.519317 
L 91.356688 -49.655678 
L 92.167746 -48.79204 
L 92.871684 -47.928401 
L 93.453961 -47.064763 
L 93.906304 -46.201125 
L 94.2183 -45.337486 
L 94.35 -44.473848 
L 94.216238 -43.61021 
L 93.706661 -42.746571 
L 92.734246 -41.882933 
L 91.283211 -41.019295 
L 89.42946 -40.155656 
L 87.323964 -39.292018 
L 85.148058 -38.428379 
L 83.060879 -37.564741 
L 81.160106 -36.701103 
L 79.471127 -35.837464 
L 77.968571 -34.973826 
L 76.617859 -34.110188 
L 75.41065 -33.246549 
L 74.371662 -32.382911 
L 73.536677 -31.519272 
L 72.923047 -30.655634 
L 72.515176 -29.791996 
L 72.270967 -28.928357 
L 72.139266 -28.064719 
L 72.075184 -27.201081 
L 72.047007 -26.337442 
z
" style="stroke: #434343; stroke-opacity: 0.7"/>
    </defs>
    <g clip-path="url(#p657ee8d6ae)">
     <use xlink:href="#m56203d6e71" x="0" y="142.561875" style="fill: #75439d; fill-opacity: 0.7; stroke: #434343; stroke-opacity: 0.7"/>
    </g>
   </g>
   <g id="FillBetweenPolyCollection_2">
    <defs>
     <path id="maaf713523d" d="M 127.916884 -26.369091 
L 127.743116 -26.369091 
L 127.701066 -27.357648 
L 127.642511 -28.346206 
L 127.562554 -29.334764 
L 127.45536 -30.323321 
L 127.314111 -31.311879 
L 127.13101 -32.300436 
L 126.897369 -33.288994 
L 126.603831 -34.277551 
L 126.24076 -35.266109 
L 125.798849 -36.254666 
L 125.269935 -37.243224 
L 124.647987 -38.231781 
L 123.930156 -39.220339 
L 123.117744 -40.208897 
L 122.21689 -41.197454 
L 121.23881 -42.186012 
L 120.199454 -43.174569 
L 119.118539 -44.163127 
L 118.01804 -45.151684 
L 116.920313 -46.140242 
L 115.846119 -47.128799 
L 114.812836 -48.117357 
L 113.833126 -49.105914 
L 112.914252 -50.094472 
L 112.058117 -51.08303 
L 111.26202 -52.071587 
L 110.519975 -53.060145 
L 109.824434 -54.048702 
L 109.168161 -55.03726 
L 108.546022 -56.025817 
L 107.956482 -57.014375 
L 107.402591 -58.002932 
L 106.892323 -58.99149 
L 106.438174 -59.980048 
L 106.056014 -60.968605 
L 105.763284 -61.957163 
L 105.576735 -62.94572 
L 105.51 -63.934278 
L 105.571352 -64.922835 
L 105.76199 -65.911393 
L 106.075155 -66.89995 
L 106.496244 -67.888508 
L 107.003928 -68.877065 
L 107.572126 -69.865623 
L 108.172533 -70.854181 
L 108.777334 -71.842738 
L 109.361735 -72.831296 
L 109.905979 -73.819853 
L 110.396671 -74.808411 
L 110.827306 -75.796968 
L 111.198046 -76.785526 
L 111.514845 -77.774083 
L 111.788055 -78.762641 
L 112.030677 -79.751198 
L 112.256409 -80.739756 
L 112.477643 -81.728314 
L 112.703617 -82.716871 
L 112.938905 -83.705429 
L 113.18247 -84.693986 
L 113.427461 -85.682544 
L 113.661862 -86.671101 
L 113.869999 -87.659659 
L 114.034751 -88.648216 
L 114.140197 -89.636774 
L 114.174317 -90.625331 
L 114.13135 -91.613889 
L 114.013436 -92.602447 
L 113.831284 -93.591004 
L 113.603755 -94.579562 
L 113.356429 -95.568119 
L 113.119359 -96.556677 
L 112.924325 -97.545234 
L 112.801988 -98.533792 
L 112.779267 -99.522349 
L 112.877263 -100.510907 
L 113.109895 -101.499465 
L 113.483322 -102.488022 
L 113.996084 -103.47658 
L 114.63982 -104.465137 
L 115.400369 -105.453695 
L 116.259053 -106.442252 
L 117.193994 -107.43081 
L 118.181359 -108.419367 
L 119.196502 -109.407925 
L 120.214996 -110.396482 
L 121.2136 -111.38504 
L 122.171155 -112.373598 
L 123.069403 -113.362155 
L 123.893692 -114.350713 
L 124.633477 -115.33927 
L 125.282579 -116.327828 
L 125.839135 -117.316385 
L 126.305247 -118.304943 
L 126.686363 -119.2935 
L 126.99046 -120.282058 
L 127.227151 -121.270615 
L 127.406787 -122.259173 
L 127.53968 -123.247731 
L 127.635479 -124.236288 
L 128.024521 -124.236288 
L 128.024521 -124.236288 
L 128.12032 -123.247731 
L 128.253213 -122.259173 
L 128.432849 -121.270615 
L 128.66954 -120.282058 
L 128.973637 -119.2935 
L 129.354753 -118.304943 
L 129.820865 -117.316385 
L 130.377421 -116.327828 
L 131.026523 -115.33927 
L 131.766308 -114.350713 
L 132.590597 -113.362155 
L 133.488845 -112.373598 
L 134.4464 -111.38504 
L 135.445004 -110.396482 
L 136.463498 -109.407925 
L 137.478641 -108.419367 
L 138.466006 -107.43081 
L 139.400947 -106.442252 
L 140.259631 -105.453695 
L 141.02018 -104.465137 
L 141.663916 -103.47658 
L 142.176678 -102.488022 
L 142.550105 -101.499465 
L 142.782737 -100.510907 
L 142.880733 -99.522349 
L 142.858012 -98.533792 
L 142.735675 -97.545234 
L 142.540641 -96.556677 
L 142.303571 -95.568119 
L 142.056245 -94.579562 
L 141.828716 -93.591004 
L 141.646564 -92.602447 
L 141.52865 -91.613889 
L 141.485683 -90.625331 
L 141.519803 -89.636774 
L 141.625249 -88.648216 
L 141.790001 -87.659659 
L 141.998138 -86.671101 
L 142.232539 -85.682544 
L 142.47753 -84.693986 
L 142.721095 -83.705429 
L 142.956383 -82.716871 
L 143.182357 -81.728314 
L 143.403591 -80.739756 
L 143.629323 -79.751198 
L 143.871945 -78.762641 
L 144.145155 -77.774083 
L 144.461954 -76.785526 
L 144.832694 -75.796968 
L 145.263329 -74.808411 
L 145.754021 -73.819853 
L 146.298265 -72.831296 
L 146.882666 -71.842738 
L 147.487467 -70.854181 
L 148.087874 -69.865623 
L 148.656072 -68.877065 
L 149.163756 -67.888508 
L 149.584845 -66.89995 
L 149.89801 -65.911393 
L 150.088648 -64.922835 
L 150.15 -63.934278 
L 150.083265 -62.94572 
L 149.896716 -61.957163 
L 149.603986 -60.968605 
L 149.221826 -59.980048 
L 148.767677 -58.99149 
L 148.257409 -58.002932 
L 147.703518 -57.014375 
L 147.113978 -56.025817 
L 146.491839 -55.03726 
L 145.835566 -54.048702 
L 145.140025 -53.060145 
L 144.39798 -52.071587 
L 143.601883 -51.08303 
L 142.745748 -50.094472 
L 141.826874 -49.105914 
L 140.847164 -48.117357 
L 139.813881 -47.128799 
L 138.739687 -46.140242 
L 137.64196 -45.151684 
L 136.541461 -44.163127 
L 135.460546 -43.174569 
L 134.42119 -42.186012 
L 133.44311 -41.197454 
L 132.542256 -40.208897 
L 131.729844 -39.220339 
L 131.012013 -38.231781 
L 130.390065 -37.243224 
L 129.861151 -36.254666 
L 129.41924 -35.266109 
L 129.056169 -34.277551 
L 128.762631 -33.288994 
L 128.52899 -32.300436 
L 128.345889 -31.311879 
L 128.20464 -30.323321 
L 128.097446 -29.334764 
L 128.017489 -28.346206 
L 127.958934 -27.357648 
L 127.916884 -26.369091 
z
" style="stroke: #434343; stroke-opacity: 0.7"/>
    </defs>
    <g clip-path="url(#p657ee8d6ae)">
     <use xlink:href="#maaf713523d" x="0" y="142.561875" style="fill: #f9ac2f; fill-opacity: 0.7; stroke: #434343; stroke-opacity: 0.7"/>
    </g>
   </g>
   <g id="matplotlib.axis_1">
    <g id="xtick_1">
     <g id="line2d_1">
      <defs>
       <path id="m2cc39cc495" d="M 0 0 
L 0 3 
" style="stroke: #000000"/>
      </defs>
      <g>
       <use xlink:href="#m2cc39cc495" x="72.03" y="121.119375" style="stroke: #000000"/>
      </g>
     </g>
     <g id="text_1">
      <!-- Proteins -->
      <g transform="translate(55.926875 133.698125) scale(0.08 -0.08)">
       <defs>
        <path id="DejaVuSans-50" d="M 1259 4147 
L 1259 2394 
L 2053 2394 
Q 2494 2394 2734 2622 
Q 2975 2850 2975 3272 
Q 2975 3691 2734 3919 
Q 2494 4147 2053 4147 
L 1259 4147 
z
M 628 4666 
L 2053 4666 
Q 2838 4666 3239 4311 
Q 3641 3956 3641 3272 
Q 3641 2581 3239 2228 
Q 2838 1875 2053 1875 
L 1259 1875 
L 1259 0 
L 628 0 
L 628 4666 
z
" transform="scale(0.015625)"/>
        <path id="DejaVuSans-72" d="M 2631 2963 
Q 2534 3019 2420 3045 
Q 2306 3072 2169 3072 
Q 1681 3072 1420 2755 
Q 1159 2438 1159 1844 
L 1159 0 
L 581 0 
L 581 3500 
L 1159 3500 
L 1159 2956 
Q 1341 3275 1631 3429 
Q 1922 3584 2338 3584 
Q 2397 3584 2469 3576 
Q 2541 3569 2628 3553 
L 2631 2963 
z
" transform="scale(0.015625)"/>
        <path id="DejaVuSans-6f" d="M 1959 3097 
Q 1497 3097 1228 2736 
Q 959 2375 959 1747 
Q 959 1119 1226 758 
Q 1494 397 1959 397 
Q 2419 397 2687 759 
Q 2956 1122 2956 1747 
Q 2956 2369 2687 2733 
Q 2419 3097 1959 3097 
z
M 1959 3584 
Q 2709 3584 3137 3096 
Q 3566 2609 3566 1747 
Q 3566 888 3137 398 
Q 2709 -91 1959 -91 
Q 1206 -91 779 398 
Q 353 888 353 1747 
Q 353 2609 779 3096 
Q 1206 3584 1959 3584 
z
" transform="scale(0.015625)"/>
        <path id="DejaVuSans-74" d="M 1172 4494 
L 1172 3500 
L 2356 3500 
L 2356 3053 
L 1172 3053 
L 1172 1153 
Q 1172 725 1289 603 
Q 1406 481 1766 481 
L 2356 481 
L 2356 0 
L 1766 0 
Q 1100 0 847 248 
Q 594 497 594 1153 
L 594 3053 
L 172 3053 
L 172 3500 
L 594 3500 
L 594 4494 
L 1172 4494 
z
" transform="scale(0.015625)"/>
        <path id="DejaVuSans-65" d="M 3597 1894 
L 3597 1613 
L 953 1613 
Q 991 1019 1311 708 
Q 1631 397 2203 397 
Q 2534 397 2845 478 
Q 3156 559 3463 722 
L 3463 178 
Q 3153 47 2828 -22 
Q 2503 -91 2169 -91 
Q 1331 -91 842 396 
Q 353 884 353 1716 
Q 353 2575 817 3079 
Q 1281 3584 2069 3584 
Q 2775 3584 3186 3129 
Q 3597 2675 3597 1894 
z
M 3022 2063 
Q 3016 2534 2758 2815 
Q 2500 3097 2075 3097 
Q 1594 3097 1305 2825 
Q 1016 2553 972 2059 
L 3022 2063 
z
" transform="scale(0.015625)"/>
        <path id="DejaVuSans-69" d="M 603 3500 
L 1178 3500 
L 1178 0 
L 603 0 
L 603 3500 
z
M 603 4863 
L 1178 4863 
L 1178 4134 
L 603 4134 
L 603 4863 
z
" transform="scale(0.015625)"/>
        <path id="DejaVuSans-6e" d="M 3513 2113 
L 3513 0 
L 2938 0 
L 2938 2094 
Q 2938 2591 2744 2837 
Q 2550 3084 2163 3084 
Q 1697 3084 1428 2787 
Q 1159 2491 1159 1978 
L 1159 0 
L 581 0 
L 581 3500 
L 1159 3500 
L 1159 2956 
Q 1366 3272 1645 3428 
Q 1925 3584 2291 3584 
Q 2894 3584 3203 3211 
Q 3513 2838 3513 2113 
z
" transform="scale(0.015625)"/>
        <path id="DejaVuSans-73" d="M 2834 3397 
L 2834 2853 
Q 2591 2978 2328 3040 
Q 2066 3103 1784 3103 
Q 1356 3103 1142 2972 
Q 928 2841 928 2578 
Q 928 2378 1081 2264 
Q 1234 2150 1697 2047 
L 1894 2003 
Q 2506 1872 2764 1633 
Q 3022 1394 3022 966 
Q 3022 478 2636 193 
Q 2250 -91 1575 -91 
Q 1294 -91 989 -36 
Q 684 19 347 128 
L 347 722 
Q 666 556 975 473 
Q 1284 391 1588 391 
Q 1994 391 2212 530 
Q 2431 669 2431 922 
Q 2431 1156 2273 1281 
Q 2116 1406 1581 1522 
L 1381 1569 
Q 847 1681 609 1914 
Q 372 2147 372 2553 
Q 372 3047 722 3315 
Q 1072 3584 1716 3584 
Q 2034 3584 2315 3537 
Q 2597 3491 2834 3397 
z
" transform="scale(0.015625)"/>
       </defs>
       <use xlink:href="#DejaVuSans-50"/>
       <use xlink:href="#DejaVuSans-72" transform="translate(58.552734 0)"/>
       <use xlink:href="#DejaVuSans-6f" transform="translate(97.416016 0)"/>
       <use xlink:href="#DejaVuSans-74" transform="translate(158.597656 0)"/>
       <use xlink:href="#DejaVuSans-65" transform="translate(197.806641 0)"/>
       <use xlink:href="#DejaVuSans-69" transform="translate(259.330078 0)"/>
       <use xlink:href="#DejaVuSans-6e" transform="translate(287.113281 0)"/>
       <use xlink:href="#DejaVuSans-73" transform="translate(350.492188 0)"/>
      </g>
     </g>
    </g>
    <g id="xtick_2">
     <g id="line2d_2">
      <g>
       <use xlink:href="#m2cc39cc495" x="127.83" y="121.119375" style="stroke: #000000"/>
      </g>
     </g>
     <g id="text_2">
      <!-- Polymers -->
      <g transform="translate(109.55125 133.698125) scale(0.08 -0.08)">
       <defs>
        <path id="DejaVuSans-6c" d="M 603 4863 
L 1178 4863 
L 1178 0 
L 603 0 
L 603 4863 
z
" transform="scale(0.015625)"/>
        <path id="DejaVuSans-79" d="M 2059 -325 
Q 1816 -950 1584 -1140 
Q 1353 -1331 966 -1331 
L 506 -1331 
L 506 -850 
L 844 -850 
Q 1081 -850 1212 -737 
Q 1344 -625 1503 -206 
L 1606 56 
L 191 3500 
L 800 3500 
L 1894 763 
L 2988 3500 
L 3597 3500 
L 2059 -325 
z
" transform="scale(0.015625)"/>
        <path id="DejaVuSans-6d" d="M 3328 2828 
Q 3544 3216 3844 3400 
Q 4144 3584 4550 3584 
Q 5097 3584 5394 3201 
Q 5691 2819 5691 2113 
L 5691 0 
L 5113 0 
L 5113 2094 
Q 5113 2597 4934 2840 
Q 4756 3084 4391 3084 
Q 3944 3084 3684 2787 
Q 3425 2491 3425 1978 
L 3425 0 
L 2847 0 
L 2847 2094 
Q 2847 2600 2669 2842 
Q 2491 3084 2119 3084 
Q 1678 3084 1418 2786 
Q 1159 2488 1159 1978 
L 1159 0 
L 581 0 
L 581 3500 
L 1159 3500 
L 1159 2956 
Q 1356 3278 1631 3431 
Q 1906 3584 2284 3584 
Q 2666 3584 2933 3390 
Q 3200 3197 3328 2828 
z
" transform="scale(0.015625)"/>
       </defs>
       <use xlink:href="#DejaVuSans-50"/>
       <use xlink:href="#DejaVuSans-6f" transform="translate(56.677734 0)"/>
       <use xlink:href="#DejaVuSans-6c" transform="translate(117.859375 0)"/>
       <use xlink:href="#DejaVuSans-79" transform="translate(145.642578 0)"/>
       <use xlink:href="#DejaVuSans-6d" transform="translate(204.822266 0)"/>
       <use xlink:href="#DejaVuSans-65" transform="translate(302.234375 0)"/>
       <use xlink:href="#DejaVuSans-72" transform="translate(363.757812 0)"/>
       <use xlink:href="#DejaVuSans-73" transform="translate(404.871094 0)"/>
      </g>
     </g>
    </g>
   </g>
   <g id="matplotlib.axis_2">
    <g id="ytick_1">
     <g id="line2d_3">
      <defs>
       <path id="m73085f7d18" d="M 0 0 
L -3 0 
" style="stroke: #000000"/>
      </defs>
      <g>
       <use xlink:href="#m73085f7d18" x="44.13" y="118.468994" style="stroke: #000000"/>
      </g>
     </g>
     <g id="text_3">
      <!-- 0 -->
      <g transform="translate(32.54 121.508369) scale(0.08 -0.08)">
       <defs>
        <path id="DejaVuSans-30" d="M 2034 4250 
Q 1547 4250 1301 3770 
Q 1056 3291 1056 2328 
Q 1056 1369 1301 889 
Q 1547 409 2034 409 
Q 2525 409 2770 889 
Q 3016 1369 3016 2328 
Q 3016 3291 2770 3770 
Q 2525 4250 2034 4250 
z
M 2034 4750 
Q 2819 4750 3233 4129 
Q 3647 3509 3647 2328 
Q 3647 1150 3233 529 
Q 2819 -91 2034 -91 
Q 1250 -91 836 529 
Q 422 1150 422 2328 
Q 422 3509 836 4129 
Q 1250 4750 2034 4750 
z
" transform="scale(0.015625)"/>
       </defs>
       <use xlink:href="#DejaVuSans-30"/>
      </g>
     </g>
    </g>
    <g id="ytick_2">
     <g id="line2d_4">
      <g>
       <use xlink:href="#m73085f7d18" x="44.13" y="100.430724" style="stroke: #000000"/>
      </g>
     </g>
     <g id="text_4">
      <!-- 25 -->
      <g transform="translate(27.45 103.470099) scale(0.08 -0.08)">
       <defs>
        <path id="DejaVuSans-32" d="M 1228 531 
L 3431 531 
L 3431 0 
L 469 0 
L 469 531 
Q 828 903 1448 1529 
Q 2069 2156 2228 2338 
Q 2531 2678 2651 2914 
Q 2772 3150 2772 3378 
Q 2772 3750 2511 3984 
Q 2250 4219 1831 4219 
Q 1534 4219 1204 4116 
Q 875 4013 500 3803 
L 500 4441 
Q 881 4594 1212 4672 
Q 1544 4750 1819 4750 
Q 2544 4750 2975 4387 
Q 3406 4025 3406 3419 
Q 3406 3131 3298 2873 
Q 3191 2616 2906 2266 
Q 2828 2175 2409 1742 
Q 1991 1309 1228 531 
z
" transform="scale(0.015625)"/>
        <path id="DejaVuSans-35" d="M 691 4666 
L 3169 4666 
L 3169 4134 
L 1269 4134 
L 1269 2991 
Q 1406 3038 1543 3061 
Q 1681 3084 1819 3084 
Q 2600 3084 3056 2656 
Q 3513 2228 3513 1497 
Q 3513 744 3044 326 
Q 2575 -91 1722 -91 
Q 1428 -91 1123 -41 
Q 819 9 494 109 
L 494 744 
Q 775 591 1075 516 
Q 1375 441 1709 441 
Q 2250 441 2565 725 
Q 2881 1009 2881 1497 
Q 2881 1984 2565 2268 
Q 2250 2553 1709 2553 
Q 1456 2553 1204 2497 
Q 953 2441 691 2322 
L 691 4666 
z
" transform="scale(0.015625)"/>
       </defs>
       <use xlink:href="#DejaVuSans-32"/>
       <use xlink:href="#DejaVuSans-35" transform="translate(63.623047 0)"/>
      </g>
     </g>
    </g>
    <g id="ytick_3">
     <g id="line2d_5">
      <g>
       <use xlink:href="#m73085f7d18" x="44.13" y="82.392454" style="stroke: #000000"/>
      </g>
     </g>
     <g id="text_5">
      <!-- 50 -->
      <g transform="translate(27.45 85.431829) scale(0.08 -0.08)">
       <use xlink:href="#DejaVuSans-35"/>
       <use xlink:href="#DejaVuSans-30" transform="translate(63.623047 0)"/>
      </g>
     </g>
    </g>
    <g id="ytick_4">
     <g id="line2d_6">
      <g>
       <use xlink:href="#m73085f7d18" x="44.13" y="64.354184" style="stroke: #000000"/>
      </g>
     </g>
     <g id="text_6">
      <!-- 75 -->
      <g transform="translate(27.45 67.393559) scale(0.08 -0.08)">
       <defs>
        <path id="DejaVuSans-37" d="M 525 4666 
L 3525 4666 
L 3525 4397 
L 1831 0 
L 1172 0 
L 2766 4134 
L 525 4134 
L 525 4666 
z
" transform="scale(0.015625)"/>
       </defs>
       <use xlink:href="#DejaVuSans-37"/>
       <use xlink:href="#DejaVuSans-35" transform="translate(63.623047 0)"/>
      </g>
     </g>
    </g>
    <g id="ytick_5">
     <g id="line2d_7">
      <g>
       <use xlink:href="#m73085f7d18" x="44.13" y="46.315915" style="stroke: #000000"/>
      </g>
     </g>
     <g id="text_7">
      <!-- 100 -->
      <g transform="translate(22.36 49.35529) scale(0.08 -0.08)">
       <defs>
        <path id="DejaVuSans-31" d="M 794 531 
L 1825 531 
L 1825 4091 
L 703 3866 
L 703 4441 
L 1819 4666 
L 2450 4666 
L 2450 531 
L 3481 531 
L 3481 0 
L 794 0 
L 794 531 
z
" transform="scale(0.015625)"/>
       </defs>
       <use xlink:href="#DejaVuSans-31"/>
       <use xlink:href="#DejaVuSans-30" transform="translate(63.623047 0)"/>
       <use xlink:href="#DejaVuSans-30" transform="translate(127.246094 0)"/>
      </g>
     </g>
    </g>
    <g id="ytick_6">
     <g id="line2d_8">
      <g>
       <use xlink:href="#m73085f7d18" x="44.13" y="28.277645" style="stroke: #000000"/>
      </g>
     </g>
     <g id="text_8">
      <!-- 125 -->
      <g transform="translate(22.36 31.31702) scale(0.08 -0.08)">
       <use xlink:href="#DejaVuSans-31"/>
       <use xlink:href="#DejaVuSans-32" transform="translate(63.623047 0)"/>
       <use xlink:href="#DejaVuSans-35" transform="translate(127.246094 0)"/>
      </g>
     </g>
    </g>
    <g id="ytick_7">
     <g id="line2d_9">
      <g>
       <use xlink:href="#m73085f7d18" x="44.13" y="10.239375" style="stroke: #000000"/>
      </g>
     </g>
     <g id="text_9">
      <!-- 150 -->
      <g transform="translate(22.36 13.27875) scale(0.08 -0.08)">
       <use xlink:href="#DejaVuSans-31"/>
       <use xlink:href="#DejaVuSans-35" transform="translate(63.623047 0)"/>
       <use xlink:href="#DejaVuSans-30" transform="translate(127.246094 0)"/>
      </g>
     </g>
    </g>
    <g id="text_10">
     <!-- $R_g$ (Å) -->
     <g transform="translate(15.57 78.954375) rotate(-90) scale(0.09 -0.09)">
      <defs>
       <path id="DejaVuSans-Oblique-52" d="M 1613 4147 
L 1294 2491 
L 2106 2491 
Q 2584 2491 2879 2755 
Q 3175 3019 3175 3444 
Q 3175 3784 2976 3965 
Q 2778 4147 2406 4147 
L 1613 4147 
z
M 2772 2241 
Q 2972 2194 3105 2009 
Q 3238 1825 3413 1275 
L 3809 0 
L 3144 0 
L 2778 1197 
Q 2638 1659 2453 1815 
Q 2269 1972 1888 1972 
L 1191 1972 
L 806 0 
L 172 0 
L 1081 4666 
L 2503 4666 
Q 3150 4666 3495 4373 
Q 3841 4081 3841 3531 
Q 3841 3044 3547 2687 
Q 3253 2331 2772 2241 
z
" transform="scale(0.015625)"/>
       <path id="DejaVuSans-Oblique-67" d="M 3816 3500 
L 3219 434 
Q 3047 -456 2561 -893 
Q 2075 -1331 1253 -1331 
Q 950 -1331 690 -1286 
Q 431 -1241 206 -1147 
L 313 -588 
Q 525 -725 762 -790 
Q 1000 -856 1269 -856 
Q 1816 -856 2167 -557 
Q 2519 -259 2631 300 
L 2681 563 
Q 2441 288 2122 144 
Q 1803 0 1434 0 
Q 903 0 598 351 
Q 294 703 294 1319 
Q 294 1803 478 2267 
Q 663 2731 997 3091 
Q 1219 3328 1514 3456 
Q 1809 3584 2131 3584 
Q 2484 3584 2746 3420 
Q 3009 3256 3138 2956 
L 3238 3500 
L 3816 3500 
z
M 2950 2216 
Q 2950 2641 2750 2872 
Q 2550 3103 2181 3103 
Q 1953 3103 1747 3012 
Q 1541 2922 1394 2759 
Q 1156 2491 1023 2127 
Q 891 1763 891 1375 
Q 891 944 1092 712 
Q 1294 481 1672 481 
Q 2219 481 2584 976 
Q 2950 1472 2950 2216 
z
" transform="scale(0.015625)"/>
       <path id="DejaVuSans-20" transform="scale(0.015625)"/>
       <path id="DejaVuSans-28" d="M 1984 4856 
Q 1566 4138 1362 3434 
Q 1159 2731 1159 2009 
Q 1159 1288 1364 580 
Q 1569 -128 1984 -844 
L 1484 -844 
Q 1016 -109 783 600 
Q 550 1309 550 2009 
Q 550 2706 781 3412 
Q 1013 4119 1484 4856 
L 1984 4856 
z
" transform="scale(0.015625)"/>
       <path id="DejaVuSans-c5" d="M 2663 5081 
Q 2663 5278 2523 5417 
Q 2384 5556 2188 5556 
Q 1988 5556 1852 5420 
Q 1716 5284 1716 5081 
Q 1716 4884 1853 4746 
Q 1991 4609 2188 4609 
Q 2384 4609 2523 4746 
Q 2663 4884 2663 5081 
z
M 2188 4044 
L 1338 1722 
L 3041 1722 
L 2188 4044 
z
M 1716 4366 
Q 1525 4494 1428 4673 
Q 1331 4853 1331 5081 
Q 1331 5441 1579 5691 
Q 1828 5941 2188 5941 
Q 2544 5941 2795 5689 
Q 3047 5438 3047 5081 
Q 3047 4863 2948 4678 
Q 2850 4494 2663 4366 
L 4325 0 
L 3669 0 
L 3244 1197 
L 1141 1197 
L 716 0 
L 50 0 
L 1716 4366 
z
" transform="scale(0.015625)"/>
       <path id="DejaVuSans-29" d="M 513 4856 
L 1013 4856 
Q 1481 4119 1714 3412 
Q 1947 2706 1947 2009 
Q 1947 1309 1714 600 
Q 1481 -109 1013 -844 
L 513 -844 
Q 928 -128 1133 580 
Q 1338 1288 1338 2009 
Q 1338 2731 1133 3434 
Q 928 4138 513 4856 
z
" transform="scale(0.015625)"/>
      </defs>
      <use xlink:href="#DejaVuSans-Oblique-52" transform="translate(0 0.171875)"/>
      <use xlink:href="#DejaVuSans-Oblique-67" transform="translate(69.482422 -16.234375) scale(0.7)"/>
      <use xlink:href="#DejaVuSans-20" transform="translate(116.650391 0.171875)"/>
      <use xlink:href="#DejaVuSans-28" transform="translate(148.4375 0.171875)"/>
      <use xlink:href="#DejaVuSans-c5" transform="translate(187.451172 0.171875)"/>
      <use xlink:href="#DejaVuSans-29" transform="translate(255.859375 0.171875)"/>
     </g>
    </g>
   </g>
   <g id="line2d_10">
    <path d="M 72.03 111.69382 
L 72.03 65.826107 
" clip-path="url(#p657ee8d6ae)" style="fill: none; stroke: #434343; stroke-width: 1.5; stroke-linecap: square"/>
   </g>
   <g id="line2d_11">
    <path d="M 72.03 99.624413 
L 72.03 86.030773 
" clip-path="url(#p657ee8d6ae)" style="fill: none; stroke: #434343; stroke-width: 4.5; stroke-linecap: square"/>
   </g>
   <g id="line2d_12">
    <path d="M 72.03 94.13176 
" clip-path="url(#p657ee8d6ae)" style="fill: none; stroke: #434343; stroke-width: 1.5; stroke-linecap: square"/>
    <defs>
     <path id="m1f7bf6c73a" d="M 1.875 0 
L -1.875 -0 
" style="stroke: #ffffff; stroke-width: 0.9"/>
    </defs>
    <g clip-path="url(#p657ee8d6ae)">
     <use xlink:href="#m1f7bf6c73a" x="72.03" y="94.13176" style="fill: #ffffff; stroke: #ffffff; stroke-width: 0.9"/>
    </g>
   </g>
   <g id="line2d_13">
    <path d="M 127.83 104.596419 
L 127.83 29.921952 
" clip-path="url(#p657ee8d6ae)" style="fill: none; stroke: #434343; stroke-width: 1.5; stroke-linecap: square"/>
   </g>
   <g id="line2d_14">
    <path d="M 127.83 82.748896 
L 127.83 50.499557 
" clip-path="url(#p657ee8d6ae)" style="fill: none; stroke: #434343; stroke-width: 4.5; stroke-linecap: square"/>
   </g>
   <g id="line2d_15">
    <path d="M 127.83 70.612495 
" clip-path="url(#p657ee8d6ae)" style="fill: none; stroke: #434343; stroke-width: 1.5; stroke-linecap: square"/>
    <g clip-path="url(#p657ee8d6ae)">
     <use xlink:href="#m1f7bf6c73a" x="127.83" y="70.612495" style="fill: #ffffff; stroke: #ffffff; stroke-width: 0.9"/>
    </g>
   </g>
   <g id="patch_3">
    <path d="M 44.13 121.119375 
L 44.13 10.239375 
" style="fill: none; stroke: #000000; stroke-width: 0.8; stroke-linejoin: miter; stroke-linecap: square"/>
   </g>
   <g id="patch_4">
    <path d="M 155.73 121.119375 
L 155.73 10.239375 
" style="fill: none; stroke: #000000; stroke-width: 0.8; stroke-linejoin: miter; stroke-linecap: square"/>
   </g>
   <g id="patch_5">
    <path d="M 44.13 121.119375 
L 155.73 121.119375 
" style="fill: none; stroke: #000000; stroke-width: 0.8; stroke-linejoin: miter; stroke-linecap: square"/>
   </g>
   <g id="patch_6">
    <path d="M 44.13 10.239375 
L 155.73 10.239375 
" style="fill: none; stroke: #000000; stroke-width: 0.8; stroke-linejoin: miter; stroke-linecap: square"/>
   </g>
  </g>
 </g>
 <defs>
  <clipPath id="p657ee8d6ae">
   <rect x="44.13" y="10.239375" width="111.6" height="110.88"/>
  </clipPath>
 </defs>
</svg>
